<?xml version="1.0" encoding="UTF-8"?>
<svg version="1.1" xmlns="http://www.w3.org/2000/svg" width="3026" height="1071">
<path d="M0 0 C3.50987199 1.50216731 5.77081769 3.52207096 8.45900345 6.21290779 C9.35175012 7.10167236 10.24449679 7.99043694 11.16429639 8.90613377 C12.15090055 9.89844395 13.13741187 10.89084646 14.12384033 11.8833313 C15.17456503 12.93318404 16.22572905 13.98259726 17.27729487 15.03160751 C20.16877018 17.91860336 23.05395986 20.81181091 25.93818188 23.70605063 C29.04836589 26.82485821 32.16431376 29.93789764 35.27957153 33.05163574 C40.67721832 38.44823299 46.07118633 43.84848486 51.46268463 49.25122452 C59.25792485 57.06270735 67.05867096 64.86867259 74.86077914 72.67329501 C87.51852262 85.33541754 100.1717918 98.00200151 112.82226562 110.67138672 C125.11224226 122.97971672 137.40431425 135.28594787 149.69921875 147.58935547 C150.45686473 148.3475269 151.21451072 149.10569833 151.99511567 149.88684465 C155.79595283 153.69029186 159.59683132 157.49369776 163.39773035 161.29708314 C194.93822971 192.85832153 226.47147595 224.42679901 258 256 C264.12420248 250.93325664 269.72003508 245.41516531 275.32601929 239.7875061 C276.3623327 238.75091232 277.39886836 237.71454068 278.43560565 236.67837083 C281.27049949 233.84377131 284.10227764 231.00607723 286.93354774 228.16785884 C289.99230613 225.10270787 293.05398525 222.04047678 296.11532593 218.97790527 C301.41463089 213.67571806 306.71215766 208.37175965 312.00852585 203.06663895 C319.66671832 195.39588348 327.3281562 187.72837601 334.99048193 180.0617495 C347.42363477 167.62153506 359.8549171 155.17945336 372.28466797 142.73583984 C373.02810084 141.99157916 373.77153371 141.24731848 374.53749485 140.48050444 C379.81671184 135.19538484 385.09586241 129.91019891 390.375 124.625 C396.4158047 118.57726309 402.45664279 112.52955953 408.49755859 106.48193359 C409.24190302 105.73676104 409.98624745 104.99158849 410.75314777 104.22383495 C423.14445427 91.8188639 435.53770827 79.41584031 447.93236506 67.01421678 C455.58066424 59.36142758 463.22717458 51.70685912 470.87141819 44.05001883 C476.10116372 38.81187585 481.33265063 33.57547648 486.56553881 28.34047301 C489.58869621 25.31596491 492.61100028 22.29061589 495.63114929 19.26310349 C498.39086495 16.49668439 501.15282768 13.7325304 503.91666205 10.97022633 C504.92070796 9.96590697 505.9238909 8.96072406 506.92616205 7.95463355 C508.27920838 6.59666718 509.63558122 5.24201761 510.9921627 3.88758278 C512.12506235 2.75330044 512.12506235 2.75330044 513.28084886 1.59610331 C515 0 515 0 516 0 C516.07051862 16.06565253 516.12319568 32.13125379 516.15543652 48.19702435 C516.1708137 55.65899053 516.1917248 63.12085978 516.22631836 70.58276367 C516.25650455 77.09717296 516.27564117 83.61151196 516.28226548 90.12598926 C516.2861291 93.5657424 516.29500992 97.0052947 516.31719017 100.44498253 C516.52344685 136.47366157 510.21135991 169.11080566 493 201 C492.67386719 201.61214355 492.34773438 202.22428711 492.01171875 202.85498047 C487.39638481 211.46276214 482.11734581 219.3851995 476 227 C475.37177387 227.79045599 474.74354774 228.58091199 474.09628445 229.39532119 C469.03818845 235.68228648 463.74557558 241.53751828 458.02122498 247.21928406 C457.16415626 248.07806162 456.30708755 248.93683919 455.42404705 249.82164031 C453.07643003 252.17195506 450.72447645 254.5177618 448.37046754 256.8616637 C445.82093062 259.40248374 443.27725847 261.9491642 440.73283386 264.49510193 C436.33437664 268.89460284 431.93230136 273.2904558 427.52767754 277.68378258 C421.15950475 284.03563288 414.79692666 290.39306358 408.43565739 296.75182674 C398.11230424 307.07081333 387.78450192 317.38533486 377.45385742 327.69702148 C367.42448265 337.70801049 357.39723129 347.72111858 347.37280273 357.73706055 C346.75387217 358.35546567 346.1349416 358.97387079 345.49725556 359.61101546 C342.39196996 362.71369079 339.2867258 365.81640759 336.18150222 368.91914499 C310.46075368 394.6191934 284.73276568 420.31198431 259 446 C253.5251353 441.43284672 248.44204107 436.58811955 243.404953 431.5453949 C242.5648159 430.70822892 241.7246788 429.87106294 240.859083 429.00852829 C238.54367412 426.70025845 236.23048761 424.38978899 233.91827524 422.078318 C231.4175542 419.57945839 228.91399146 417.08344835 226.4108429 414.58702087 C220.9451828 409.1349004 215.48326359 403.67904274 210.02216506 398.2223537 C206.60722583 394.81018424 203.19155285 391.39874993 199.77575111 387.98744392 C190.30405623 378.52793587 180.83330505 369.06748524 171.3660078 359.60357571 C170.76094135 358.99872882 170.1558749 358.39388194 169.53247311 357.77070636 C168.92602511 357.16447665 168.31957712 356.55824693 167.69475192 355.93364662 C166.4660178 354.70535596 165.23728214 353.47706685 164.00854492 352.2487793 C163.39905989 351.6395157 162.78957487 351.0302521 162.16162059 350.40252597 C152.29343585 340.5382863 142.41851826 330.68081648 132.54066535 320.82625925 C122.38044349 310.68980429 112.22590866 300.54768083 102.07698137 290.39991719 C96.38622499 284.71007456 90.69311141 279.02263735 84.99370384 273.34145927 C80.13924889 268.50247753 75.29005914 263.65829371 70.4474444 258.80746173 C67.9811165 256.33725277 65.51252241 253.86943686 63.03718185 251.40825653 C53.32698737 241.74420316 43.85307672 232.26625113 36 221 C35.11613759 219.73519129 35.11613759 219.73519129 34.21441936 218.44483089 C6.19102932 177.64016674 -0.20659577 133.46116968 -0.09765625 85.05859375 C-0.09578698 82.59424366 -0.09436549 80.1298932 -0.09336853 77.6655426 C-0.08958337 71.23612408 -0.0797881 64.80672879 -0.06866455 58.37731934 C-0.05836356 51.79386713 -0.05385245 45.2104111 -0.04882812 38.62695312 C-0.03816153 25.75129227 -0.02133144 12.87564738 0 0 Z " fill="#406152" transform="translate(152,490)"/>
<path d="M0 0 C40.26 0 80.52 0 122 0 C119.69902344 17.34433594 117.39804687 34.68867188 115.02734375 52.55859375 C114.52460732 64.08841661 114.14077393 74.70646758 115.30419922 86.05810547 C115.37364072 86.75236188 115.44308223 87.44661829 115.51462802 88.16191277 C119.85072251 129.54344119 146.99843586 156.91767607 175.37890625 185.09765625 C176.03292166 185.74832705 176.68693706 186.39899785 177.36077112 187.06938595 C194.31251908 203.90781494 211.80882448 220.12674996 229.51835287 236.16154611 C239.7969824 245.47847901 249.91523916 254.9488168 259.94311523 264.53491211 C260.65674445 265.21701451 261.37037367 265.89911691 262.10562802 266.60188908 C265.68761346 270.02718441 269.26711535 273.45506203 272.84539521 276.88422787 C302.19006532 304.99971374 331.94065636 332.65111926 362 360 C360.38765977 363.40407757 358.60424623 365.64291071 355.92514038 368.31536865 C354.64627205 369.59836098 354.64627205 369.59836098 353.34156799 370.90727234 C352.39495937 371.84680334 351.44825511 372.78623799 350.50146484 373.72558594 C349.50567898 374.7208075 348.51033361 375.71646998 347.51539612 376.71253967 C344.81551531 379.41299428 342.10951264 382.10723816 339.40237379 384.80041409 C336.57340123 387.61688388 333.75009167 390.43901871 330.92617798 393.26055908 C325.57889055 398.60163041 320.22652533 403.93758304 314.87231982 409.27171826 C308.77654811 415.34513503 302.68645466 421.424232 296.59683299 427.50381422 C284.0708658 440.00887648 271.53778085 452.5067829 259 465 C258.05967895 464.19346953 257.11935789 463.38693907 256.15054226 462.55596828 C253.17116026 460.00178195 250.18773029 457.45238766 247.20308781 454.90435123 C206.52393755 420.13789532 166.78054257 384.39553764 127.83186936 347.70011687 C125.5677821 345.56747544 123.30190275 343.43674988 121.0359478 341.30609322 C-14.07434402 214.14225064 -14.07434402 214.14225064 -17.62742615 129.53663635 C-18.00403218 115.53220642 -17.10285492 101.68191533 -15.75 87.75 C-15.59007136 86.0551515 -15.59007136 86.0551515 -15.42691183 84.32606363 C-14.67262855 76.47945885 -13.79199677 68.65409823 -12.79858398 60.83422852 C-12.67481325 59.85643869 -12.55104252 58.87864887 -12.42352116 57.87122905 C-9.81953335 38.1345888 -4.73548253 19.46809484 0 0 Z " fill="#527963" transform="translate(152,181)"/>
<path d="M0 0 C40.26 0 80.52 0 122 0 C122 33.99 122 67.98 122 103 C146.75 103 171.5 103 197 103 C197 69.01 197 35.02 197 0 C237.26 0 277.52 0 319 0 C323.30275178 50.29251262 323.30275178 50.29251262 324.18066406 68.80883789 C324.23488038 69.94853094 324.28909669 71.08822399 324.34495592 72.2624532 C324.73733943 80.71495506 325.07103486 89.16889211 325.375 97.625 C325.44105092 99.41439633 325.44105092 99.41439633 325.5084362 101.23994207 C329.38482871 209.30086297 329.38482871 209.30086297 289.68649292 252.09301758 C282.931378 259.1898468 275.68616931 265.69261376 268.25 272.0625 C267.34180716 272.8455644 267.34180716 272.8455644 266.41526699 273.64444828 C253.76566057 284.53130077 240.69830446 294.77484501 226.81738281 304.05102539 C225.87802069 304.68211023 224.93865856 305.31319508 223.97083092 305.9634037 C223.10705645 306.51918791 222.24328197 307.07497211 221.35333252 307.64759827 C220.60483662 308.13054887 219.85634071 308.61349947 219.08516312 309.11108494 C216.55946831 310.18780078 215.51583278 310.00841267 213 309 C211.18823242 307.54467773 211.18823242 307.54467773 209.35546875 305.68359375 C208.67806641 305.00103516 208.00066406 304.31847656 207.30273438 303.61523438 C206.60470703 302.89658203 205.90667969 302.17792969 205.1875 301.4375 C204.50107422 300.74591797 203.81464844 300.05433594 203.10742188 299.34179688 C199.90608837 296.09200421 196.82469773 292.79523524 193.86593533 289.32342625 C190.144395 285.06706565 186.13185037 281.25649997 181.94508362 277.46409607 C180.3204215 275.97694128 178.69586965 274.48966601 177.07141113 273.00228882 C176.21104248 272.21730892 175.35067383 271.43232903 174.4642334 270.62356186 C169.71023233 266.2827837 164.97200222 261.92489778 160.23841858 257.56187439 C159.48552664 256.86802243 159.48552664 256.86802243 158.71742477 256.16015325 C150.75260395 248.8146048 142.85666502 241.39926243 135.00437927 233.93360901 C134.46908484 233.42470184 133.93379041 232.91579467 133.38227493 232.39146607 C127.8458914 227.12572026 122.31848462 221.85065235 116.79934678 216.56683567 C113.96648639 213.85534559 111.13148983 211.14609919 108.29516602 208.43823242 C107.73090772 207.89945912 107.16664942 207.36068581 106.58529239 206.80558605 C98.65822034 199.24504163 90.63002916 191.80844217 82.50843982 184.45747454 C68.49733003 171.77531675 54.71913335 158.88421638 41.31640625 145.55859375 C40.79798143 145.04418793 40.27955661 144.5297821 39.74542195 143.99978822 C17.46372679 121.83958833 -2.77520019 100.24223495 -5.90673828 67.52783203 C-6.05402457 65.99012071 -6.05402457 65.99012071 -6.20428634 64.42134452 C-7.88219256 42.73287116 -3.06463525 21.37547641 0 0 Z " fill="#50745E" transform="translate(349,181)"/>
<path d="M0 0 C1.09610596 0.31348389 1.09610596 0.31348389 2.21435547 0.63330078 C18.89379131 5.60251454 33.75139412 13.77006774 47 25 C47.76304443 25.63760254 47.76304443 25.63760254 48.54150391 26.28808594 C72.68686431 46.62988244 88.99933406 77.25532454 91.86376953 108.8046875 C92.50656092 119.16307497 92.70675466 129.75947202 91 140 C22.69 140 -45.62 140 -116 140 C-116 142.64 -116 145.28 -116 148 C-114.783125 147.896875 -113.56625 147.79375 -112.3125 147.6875 C-108.93140956 147.40096691 -108.10566416 147.91210663 -105.421875 150.14453125 C-102.9864595 153.01596468 -101.53011326 155.60242505 -99.9375 159 C-90.93304972 176.19208218 -75.17643157 187.71280859 -57 194 C-37.16985438 200.0174235 -16.92523957 197.74079101 1.38500977 188.27319336 C13.07852901 181.85939098 23.25011164 172.92230003 28.93969727 160.78027344 C32.0814179 155.35267967 32.0814179 155.35267967 35.74606323 153.94567871 C39.12858726 153.60934924 42.32039238 153.64796253 45.71484375 153.828125 C47.53116051 153.85359406 47.53116051 153.85359406 49.38417053 153.87957764 C53.23895624 153.94658033 57.08526153 154.09705514 60.9375 154.25 C63.55521733 154.3102109 66.17306636 154.36496061 68.79101562 154.4140625 C75.19688712 154.54612364 81.59783805 154.74669547 88 155 C82.76655423 172.50428518 82.76655423 172.50428518 79.1875 179.25 C78.8462207 179.9085498 78.50494141 180.56709961 78.15332031 181.24560547 C62.09545861 211.62873131 35.41870936 233.70375483 2.67578125 243.97265625 C-31.36392303 253.48640994 -66.22971651 250.11158131 -97.21289062 233.01464844 C-126.00496517 216.66767278 -146.59972241 190.40142855 -156.3125 158.875 C-156.55532715 158.08818848 -156.7981543 157.30137695 -157.04833984 156.49072266 C-160.27705964 145.38328676 -161.37015949 134.28607591 -161.3125 122.75 C-161.30512817 120.98402466 -161.30512817 120.98402466 -161.29760742 119.18237305 C-160.85953077 86.41199309 -147.57417527 58.2179093 -126 34 C-125.40574219 33.33226562 -124.81148437 32.66453125 -124.19921875 31.9765625 C-93.44460493 -0.53327742 -42.32861471 -12.1164383 0 0 Z M-84 65 C-84.89460938 65.80179688 -85.78921875 66.60359375 -86.7109375 67.4296875 C-94.54311937 74.83270872 -101.83691687 83.18458435 -104 94 C-58.13 94 -12.26 94 35 94 C28.97573007 75.92719022 15.45097034 63.11220057 -1.125 54.34765625 C-28.14296148 41.06599009 -61.39128853 44.62819284 -84 65 Z " fill="#000000" transform="translate(1959,388)"/>
<path d="M0 0 C0.92403122 -0.00570007 1.84806244 -0.01140015 2.8000946 -0.01727295 C4.75416942 -0.02668745 6.70825985 -0.03324275 8.66235352 -0.03710938 C11.58965518 -0.04672048 14.51622492 -0.07773832 17.44335938 -0.109375 C43.11216948 -0.25472608 68.10072016 4.2283812 88.32421875 21.203125 C89.31421875 21.925 90.30421875 22.646875 91.32421875 23.390625 C108.65944147 38.18781788 116.68660581 63.42556516 119.32421875 85.203125 C119.77512147 90.97998859 119.70720797 96.76492879 119.66479492 102.55493164 C119.66394584 104.21259038 119.66442926 105.87025024 119.66612244 107.52790833 C119.66697285 111.96901113 119.64950434 116.40986405 119.62840056 120.85090947 C119.60947211 125.51399119 119.60787072 130.17708049 119.60432434 134.8401947 C119.59505087 143.64409245 119.57050166 152.44787662 119.54027587 161.25172466 C119.50658438 171.28576922 119.49020901 181.31981959 119.47518957 191.35390675 C119.44394714 211.97039005 119.38899485 232.58671791 119.32421875 253.203125 C98.86421875 253.203125 78.40421875 253.203125 57.32421875 253.203125 C57.30234497 246.26998291 57.30234497 246.26998291 57.2800293 239.19677734 C57.229614 223.89779277 57.16315487 208.59890863 57.08850384 193.30002403 C57.04364773 184.02750159 57.00420989 174.75501667 56.9777832 165.48242188 C56.9547203 157.39503358 56.92123059 149.30776509 56.87551719 141.22047198 C56.85169617 136.94320155 56.83289489 132.66604895 56.82660484 128.38871384 C56.82050319 124.35195695 56.8003232 120.31550112 56.76994324 116.27885628 C56.76124356 114.80765573 56.7574234 113.33641569 56.75921059 111.86519051 C56.77296114 95.3031356 54.23926252 78.6876436 42.88671875 65.828125 C39.14347983 62.44242742 34.90933644 60.12814138 30.44921875 57.828125 C29.47770874 57.32659912 29.47770874 57.32659912 28.48657227 56.81494141 C16.9315217 51.24752099 4.62588189 51.86499235 -7.90234375 51.7890625 C-9.86104121 51.77032795 -11.81973079 51.75075287 -13.77841187 51.7303772 C-18.90418836 51.67929147 -24.02999096 51.63954038 -29.15588379 51.60223389 C-34.39825776 51.56204568 -39.64052538 51.51102129 -44.8828125 51.4609375 C-55.14706045 51.36445755 -65.41136878 51.27996432 -75.67578125 51.203125 C-75.67578125 53.843125 -75.67578125 56.483125 -75.67578125 59.203125 C-74.75345703 59.15091797 -74.75345703 59.15091797 -73.8125 59.09765625 C-73.00425781 59.07058594 -72.19601562 59.04351562 -71.36328125 59.015625 C-70.16251953 58.96341797 -70.16251953 58.96341797 -68.9375 58.91015625 C-66.67578125 59.203125 -66.67578125 59.203125 -64.9453125 60.52734375 C-62.13218787 64.24066826 -62.53768599 68.27429364 -62.55552673 72.70109558 C-62.55467231 73.4713667 -62.55381788 74.24163782 -62.55293757 75.03525048 C-62.55128652 77.62402832 -62.55679803 80.21274178 -62.56225586 82.80151367 C-62.56253784 84.65414936 -62.56237979 86.50678516 -62.56181335 88.35942078 C-62.5615258 93.39628232 -62.56741584 98.43312017 -62.57438731 103.46997619 C-62.58062774 108.73106629 -62.5812252 113.99215689 -62.58241272 119.25325012 C-62.585524 129.21920867 -62.59373466 139.18515627 -62.60376221 149.15110999 C-62.61492965 160.49558135 -62.62043539 171.84005322 -62.62545764 183.18452871 C-62.63591743 206.52406827 -62.6542604 229.86359284 -62.67578125 253.203125 C-83.46578125 253.203125 -104.25578125 253.203125 -125.67578125 253.203125 C-125.67578125 171.363125 -125.67578125 89.523125 -125.67578125 5.203125 C-105.21578125 5.203125 -84.75578125 5.203125 -63.67578125 5.203125 C-63.67578125 14.113125 -63.67578125 23.023125 -63.67578125 32.203125 C-60.96709601 29.49443976 -59.07260852 27.48259767 -56.98828125 24.453125 C-46.37197612 10.29805149 -30.67687708 3.56264736 -13.60888672 0.6862793 C-9.04804006 0.12601142 -4.59005236 0.02242588 0 0 Z " fill="#000000" transform="translate(1651.67578125,383.796875)"/>
<path d="M0 0 C2.49813766 2.20675302 4.91681813 4.47612457 7.32421875 6.78125 C8.13375 7.51601563 8.94328125 8.25078125 9.77734375 9.0078125 C21.61865812 20.14162695 29.7245067 34.06241167 36.32421875 48.78125 C36.80632813 49.84601563 37.2884375 50.91078125 37.78515625 52.0078125 C48.84695318 78.48908394 49.06909401 109.65193402 40.32421875 136.78125 C40.01508545 137.7412793 40.01508545 137.7412793 39.69970703 138.72070312 C34.82057056 153.53692905 27.6768147 167.04697297 17.32421875 178.78125 C16.62683594 179.59851563 15.92945312 180.41578125 15.2109375 181.2578125 C-6.72477817 206.42739034 -36.37328226 221.83384573 -69.67578125 224.78125 C-104.32667118 226.95717956 -136.90194369 217.12946255 -163.38671875 194.4609375 C-165.85605806 192.27338465 -168.27262898 190.04105634 -170.67578125 187.78125 C-171.56136719 186.99234375 -171.56136719 186.99234375 -172.46484375 186.1875 C-193.70966959 166.45296984 -205.98741956 135.05885047 -207.5859375 106.48046875 C-207.61558594 105.58972656 -207.64523438 104.69898438 -207.67578125 103.78125 C-207.73572266 102.52248047 -207.73572266 102.52248047 -207.796875 101.23828125 C-208.68731574 66.61585029 -195.11214149 34.06290679 -171.43579102 9.08544922 C-126.12467079 -37.28787963 -49.97530424 -41.43937636 0 0 Z M-139.765625 50.203125 C-149.3214285 63.1005285 -155.50854351 77.74562676 -156.67578125 93.78125 C-156.72992187 94.43222656 -156.7840625 95.08320313 -156.83984375 95.75390625 C-157.64172338 114.67097568 -150.41546769 132.30732035 -138.67578125 146.78125 C-137.89203125 147.833125 -137.10828125 148.885 -136.30078125 149.96875 C-123.10384884 164.10832044 -104.27079183 172.92311185 -84.984375 173.984375 C-63.79631849 174.24094077 -44.6850794 167.86660882 -29.1171875 153.17578125 C-28.31152344 152.38558594 -27.50585938 151.59539062 -26.67578125 150.78125 C-25.51369141 149.67330078 -25.51369141 149.67330078 -24.328125 148.54296875 C-10.8450172 134.78233558 -4.49135235 114.99768975 -4.58935547 95.9765625 C-5.02193699 84.98850309 -7.71082378 74.58907583 -12.67578125 64.78125 C-13.16820313 63.79769531 -13.660625 62.81414062 -14.16796875 61.80078125 C-24.46026079 42.7674278 -41.04703917 30.91680884 -61.48828125 24.46875 C-90.52349467 17.21734604 -120.48116409 27.5527931 -139.765625 50.203125 Z " fill="#000000" transform="translate(2448.67578125,412.21875)"/>
<path d="M0 0 C25.12285365 21.22862902 40.78750926 51.60329397 44.11230469 84.28540039 C46.72840261 117.42612886 38.01954416 151.5773541 16.26806641 177.26513672 C-6.7417186 203.44601814 -36.39835026 220.740001 -71.70458984 223.60498047 C-108.10003777 225.44688427 -141.28745709 214.70862812 -168.67333984 190.41748047 C-186.81482995 173.83359305 -199.32565404 152.23362185 -205.70458984 128.60498047 C-205.97142578 127.62537354 -205.97142578 127.62537354 -206.24365234 126.62597656 C-211.16200817 107.48439928 -210.87767965 84.66746208 -205.70458984 65.60498047 C-205.51654785 64.89937988 -205.32850586 64.1937793 -205.13476562 63.46679688 C-200.37758528 46.28115172 -192.17780258 30.2713029 -180.70458984 16.60498047 C-179.98658203 15.74775391 -179.26857422 14.89052734 -178.52880859 14.00732422 C-161.54156995 -5.5144225 -139.06074454 -20.3462019 -113.70458984 -26.39501953 C-112.53154297 -26.69150391 -111.35849609 -26.98798828 -110.14990234 -27.29345703 C-71.15253956 -36.16346483 -30.57206394 -25.01987588 0 0 Z M-131.70458984 39.60498047 C-132.59919922 40.40677734 -133.49380859 41.20857422 -134.41552734 42.03466797 C-147.84486712 54.72815351 -157.21593394 72.00684416 -158.04052734 90.73388672 C-158.40573094 112.57425891 -153.65649448 131.02723765 -138.70458984 147.60498047 C-138.11291016 148.28947266 -137.52123047 148.97396484 -136.91162109 149.67919922 C-124.18836109 163.48759867 -105.19208566 171.7056545 -86.63427734 172.92529297 C-66.52416421 173.73464222 -47.42829877 167.30339074 -32.22851562 154.01806641 C-17.20327884 140.13918207 -7.71589926 121.71944758 -6.50146484 101.16748047 C-6.22772099 80.36294743 -12.1603029 62.39875563 -25.70458984 46.60498047 C-26.31818359 45.87923828 -26.93177734 45.15349609 -27.56396484 44.40576172 C-39.82084668 31.07509323 -58.68880876 22.23531118 -76.63818359 21.28466797 C-97.2088565 20.63055044 -116.08658372 25.53221877 -131.70458984 39.60498047 Z " fill="#000000" transform="translate(1455.70458984375,413.39501953125)"/>
<path d="M0 0 C16.33009719 14.87986911 25.69313056 33.68255893 27.72021484 55.69799805 C7.70881081 55.90036056 -12.27942025 55.28285862 -32.27978516 54.69799805 C-32.60954346 53.8774292 -32.93930176 53.05686035 -33.27905273 52.21142578 C-33.93877075 50.59409546 -33.93877075 50.59409546 -34.61181641 48.9440918 C-35.04469971 47.87602295 -35.47758301 46.8079541 -35.92358398 45.70751953 C-39.13105194 38.58988541 -43.50485932 35.13694825 -50.42431641 31.7409668 C-64.19740579 26.71030351 -82.03793634 26.33743068 -95.80322266 31.49487305 C-100.09409885 33.57939965 -103.25151408 35.58075934 -105.40478516 40.0144043 C-107.15085179 45.3695283 -107.03994853 51.20031838 -105.40478516 56.57299805 C-99.69669497 62.28108823 -91.17299053 64.61833274 -83.52978516 66.57299805 C-82.60439941 66.81856445 -81.67901367 67.06413086 -80.72558594 67.31713867 C-72.57461805 69.44521732 -64.36526882 71.31590177 -56.15478516 73.19799805 C-28.19185041 79.61880392 -0.95555919 86.80058478 19.72021484 107.69799805 C20.32478516 108.2806543 20.92935547 108.86331055 21.55224609 109.46362305 C33.53922714 121.98827871 36.23652383 139.44878486 36.14013672 156.03540039 C35.66049209 174.86760155 29.36567917 191.44637565 15.72021484 204.69799805 C15.03314453 205.3940918 14.34607422 206.09018555 13.63818359 206.80737305 C-8.70697689 228.19902946 -41.8787203 231.19732161 -71.23681641 230.90893555 C-103.02387022 230.21050849 -133.27683546 220.75748605 -155.77197266 197.55737305 C-159.54811589 193.25186394 -162.4985794 188.69102886 -165.27978516 183.69799805 C-165.73998047 182.8987793 -166.20017578 182.09956055 -166.67431641 181.27612305 C-171.55165629 172.25820157 -174.27978516 162.9435609 -174.27978516 152.69799805 C-154.47978516 152.69799805 -134.67978516 152.69799805 -114.27978516 152.69799805 C-112.29978516 156.65799805 -110.31978516 160.61799805 -108.27978516 164.69799805 C-97.93998665 175.82111462 -85.18039353 179.35580261 -70.34619141 179.91674805 C-56.64609028 180.24667596 -41.11387167 180.40566725 -30.27978516 170.69799805 C-25.94366415 165.09348791 -24.50031529 159.33404505 -24.85791016 152.3112793 C-25.94861786 145.55495101 -28.79126474 141.6830357 -34.27978516 137.69799805 C-46.43220712 130.77196735 -61.56616515 128.86261767 -75.03320312 125.86157227 C-127.32754705 114.20732813 -127.32754705 114.20732813 -146.27978516 97.69799805 C-147.194375 96.99610352 -147.194375 96.99610352 -148.12744141 96.2800293 C-159.30787534 87.50768883 -165.95816264 73.32180977 -167.68603516 59.43237305 C-169.57079601 38.95701647 -164.97911106 20.26700476 -151.71728516 4.13549805 C-116.93504603 -33.21588374 -37.69584386 -32.58682417 0 0 Z " fill="#000000" transform="translate(997.27978515625,406.302001953125)"/>
<path d="M0 0 C0.87855148 -0.00014603 1.75710297 -0.00029205 2.66227722 -0.0004425 C5.55702205 0.0002524 8.451702 0.00802503 11.34643555 0.01586914 C13.35711126 0.01773482 15.36778742 0.01915802 17.37846375 0.02015686 C22.66384136 0.02397023 27.94919138 0.03379044 33.23455811 0.04486084 C39.579729 0.05690146 45.92490914 0.06148282 52.2700882 0.06731415 C61.9036294 0.07700281 71.5371101 0.09616765 81.1706543 0.11352539 C81.1706543 16.61352539 81.1706543 33.11352539 81.1706543 50.11352539 C75.26352539 50.16959961 75.26352539 50.16959961 69.23706055 50.22680664 C65.40440455 50.27307589 61.57184413 50.3242901 57.73925781 50.37597656 C55.08459627 50.41075202 52.43022534 50.43719726 49.77539062 50.45996094 C45.94981578 50.49366328 42.124869 50.54598935 38.29956055 50.60180664 C36.53184044 50.61139153 36.53184044 50.61139153 34.72840881 50.62117004 C28.23791935 50.7358294 22.02616294 51.04080546 16.1706543 54.11352539 C10.8410362 60.2425862 11.00599639 66.63267616 10.85424805 74.35180664 C10.83559692 75.13309937 10.8169458 75.91439209 10.79772949 76.71936035 C10.72973431 79.62147347 10.66939315 82.52376185 10.6081543 85.42602539 C10.4637793 91.92290039 10.3194043 98.41977539 10.1706543 105.11352539 C33.6006543 105.11352539 57.0306543 105.11352539 81.1706543 105.11352539 C81.1706543 121.94352539 81.1706543 138.77352539 81.1706543 156.11352539 C53.7806543 156.11352539 26.3906543 156.11352539 -1.8293457 156.11352539 C-1.8293457 158.75352539 -1.8293457 161.39352539 -1.8293457 164.11352539 C-0.5918457 164.03102539 0.6456543 163.94852539 1.9206543 163.86352539 C4.83823839 163.66901978 5.88283848 163.90235135 8.27437973 165.6570549 C10.83017657 168.96788321 10.71593103 171.79471865 10.65167236 175.80767822 C10.65509006 176.58697087 10.65850776 177.36626352 10.66202903 178.16917109 C10.66862249 180.7828316 10.64660838 183.39546718 10.62475586 186.0090332 C10.6236277 187.88152034 10.62426063 189.75400925 10.62652588 191.62649536 C10.62767517 196.71302767 10.60413103 201.79918391 10.57623005 206.8856287 C10.55125221 212.20008 10.54887725 217.51453959 10.54412842 222.82904053 C10.53168801 232.89420852 10.49885193 242.95920306 10.45873046 253.02429461 C10.41404593 264.48242785 10.39203405 275.9405693 10.37194872 287.39876795 C10.33012024 310.97047213 10.2567545 334.54193848 10.1706543 358.11352539 C-10.2893457 358.11352539 -30.7493457 358.11352539 -51.8293457 358.11352539 C-51.8293457 291.45352539 -51.8293457 224.79352539 -51.8293457 156.11352539 C-61.7293457 156.11352539 -71.6293457 156.11352539 -81.8293457 156.11352539 C-81.8293457 139.28352539 -81.8293457 122.45352539 -81.8293457 105.11352539 C-71.9293457 105.11352539 -62.0293457 105.11352539 -51.8293457 105.11352539 C-51.86415039 101.16125977 -51.89895508 97.20899414 -51.93481445 93.13696289 C-51.95416603 89.94559 -51.97041352 86.75423415 -51.98459625 83.56283569 C-52.00030665 80.21595563 -52.02290499 76.86948728 -52.05566406 73.52270508 C-52.09245319 69.66489641 -52.10916457 65.80741627 -52.12231445 61.94946289 C-52.13779831 60.77491547 -52.15328217 59.60036804 -52.16923523 58.39022827 C-52.17142974 47.34831453 -50.64053439 36.46963058 -45.4543457 26.61352539 C-44.88973633 25.51008789 -44.32512695 24.40665039 -43.7434082 23.26977539 C-36.61741715 11.51916158 -24.91735293 3.99096241 -11.71076965 0.56373596 C-7.79252926 -0.04847289 -3.95970647 -0.01728559 0 0 Z " fill="#000000" transform="translate(2154.829345703125,278.886474609375)"/>
<path d="M0 0 C20.79 0 41.58 0 63 0 C63 26.4 63 52.8 63 80 C86.1 80 109.2 80 133 80 C133 96.83 133 113.66 133 131 C105.61 131 78.22 131 50 131 C50 133.64 50 136.28 50 139 C51.2375 138.938125 52.475 138.87625 53.75 138.8125 C56.63178648 138.8125 57.84444148 138.91623772 60.4375 140.3125 C63.21335867 143.31042736 63.12602084 146.25231631 63.13130188 150.14179993 C63.13531006 151.20585052 63.13931824 152.26990112 63.14344788 153.36619568 C63.14291916 154.53352737 63.14239044 155.70085907 63.1418457 156.90356445 C63.14532013 158.13306824 63.14879456 159.36257202 63.15237427 160.6293335 C63.15973574 163.30413154 63.16540683 165.97887981 63.16866493 168.6536808 C63.1745791 172.8856323 63.19112362 177.11749989 63.21000671 181.34941101 C63.21634404 182.79880614 63.22266966 184.24820132 63.22898388 185.69759655 C63.23214969 186.42344743 63.2353155 187.14929831 63.23857725 187.89714468 C63.28063629 197.74871634 63.31362548 207.60024883 63.32592773 217.4519043 C63.33431247 224.09813842 63.35681804 230.74416462 63.3952834 237.39029473 C63.4150302 240.90609148 63.42745335 244.4215775 63.42244911 247.93743324 C63.4169322 251.86124336 63.44222482 255.78452905 63.4699707 259.70825195 C63.46336929 260.86951096 63.45676788 262.03076996 63.44996643 263.22721863 C63.51981632 269.23594502 63.60865495 273.46353287 68 278 C72.08864851 280.63364217 75.27542111 281.38063757 80.09716797 281.43237305 C81.27793915 281.45216721 82.45871033 281.47196136 83.67526245 281.49235535 C84.93484772 281.49874527 86.19443298 281.50513519 87.4921875 281.51171875 C88.79326447 281.52966995 90.09434143 281.54762115 91.43484497 281.56611633 C94.87722787 281.61344821 98.319546 281.64336555 101.762146 281.66955566 C105.28166401 281.69944671 108.80096366 281.74578816 112.3203125 281.79101562 C119.21355812 281.87840052 126.1062808 281.93848681 133 282 C133 298.83 133 315.66 133 333 C112.17907142 333.16043524 112.17907142 333.16043524 103.2109375 333.1953125 C97.12387914 333.21909856 91.03706452 333.24704327 84.95019531 333.30175781 C80.03533278 333.34565392 75.12073212 333.36922814 70.20568848 333.37950897 C68.34326055 333.38682267 66.48084474 333.40110106 64.61853027 333.42292023 C45.15218723 333.64163761 28.82355943 330.91436025 14.03515625 317.1953125 C1.30055285 303.45856181 -0.32246439 285.52313539 -0.22705078 267.68457031 C-0.22648527 266.18528247 -0.22680595 264.68599407 -0.22793579 263.18670654 C-0.22850486 259.15443819 -0.21682353 255.1222911 -0.20278788 251.0900507 C-0.19020546 246.86202182 -0.18910414 242.63398954 -0.18673706 238.40594482 C-0.18054422 230.4164757 -0.1641634 222.42706192 -0.14403808 214.43761706 C-0.12161038 205.33473864 -0.11066844 196.23185744 -0.10064721 187.12895823 C-0.079795 168.41926782 -0.04314651 149.70965319 0 131 C-9.9 131 -19.8 131 -30 131 C-30 114.17 -30 97.34 -30 80 C-20.1 80 -10.2 80 0 80 C0 53.6 0 27.2 0 0 Z " fill="#000000" transform="translate(2740,304)"/>
<path d="M0 0 C20.46 0 40.92 0 62 0 C62 26.4 62 52.8 62 80 C85.43 80 108.86 80 133 80 C133 96.83 133 113.66 133 131 C105.61 131 78.22 131 50 131 C50 133.64 50 136.28 50 139 C51.2375 138.9175 52.475 138.835 53.75 138.75 C56.76886606 138.54874226 57.70549421 138.76174105 60.10219383 140.70070171 C62.375127 143.45448734 62.50130023 144.65571253 62.50552368 148.17939758 C62.51654617 149.22654938 62.52756866 150.27370117 62.53892517 151.35258484 C62.53075272 152.49604874 62.52258026 153.63951263 62.51416016 154.81762695 C62.52128525 156.02616333 62.52841034 157.23469971 62.53575134 158.4798584 C62.54843468 161.10647512 62.55389362 163.73192879 62.54698563 166.35845375 C62.53619046 170.51526243 62.55359247 174.6716639 62.57479858 178.82841492 C62.60506 185.4073314 62.61675292 191.98612722 62.62037504 198.56510752 C62.62701774 210.33511493 62.65613499 222.1050377 62.7054714 233.87494248 C62.72192408 238.00264167 62.72739479 242.13016537 62.72388101 246.25789416 C62.72333923 249.43667701 62.73514741 252.61542308 62.74462891 255.79418945 C62.74050491 256.93158066 62.73638092 258.06897186 62.73213196 259.24082947 C62.68909979 268.86653888 62.68909979 268.86653888 66.8125 277.3125 C70.95834166 280.51072071 74.72444784 281.25129997 79.8918457 281.31884766 C81.05267166 281.33871735 82.21349762 281.35858704 83.40950012 281.37905884 C84.65237289 281.39061005 85.89524567 281.40216125 87.17578125 281.4140625 C88.45607712 281.43342865 89.73637299 281.4527948 91.0554657 281.4727478 C94.4468778 281.52393948 97.83832945 281.56363407 101.22991943 281.60089111 C104.69569541 281.64101249 108.16131127 281.6919625 111.62695312 281.7421875 C118.41790706 281.83981128 125.20873662 281.91942928 132 282 C132 298.83 132 315.66 132 333 C111.42863735 333.16043524 111.42863735 333.16043524 102.56640625 333.1953125 C96.55177449 333.21909643 90.53738947 333.24703514 84.52294922 333.30175781 C79.66644106 333.34566148 74.81019799 333.36922967 69.95350647 333.37950897 C68.11340673 333.38682135 66.27331921 333.40109703 64.43333435 333.42292023 C45.95540281 333.63308576 28.91352649 331.39609224 14.6875 318.3125 C2.07924091 304.60331185 -0.64422463 287.8997305 -0.45410156 269.95507812 C-0.45296935 268.42564423 -0.45361421 266.89620816 -0.45587158 265.36677551 C-0.4570051 261.27054868 -0.43372059 257.17480385 -0.40557575 253.07868767 C-0.38033116 248.77729707 -0.37820214 244.47589173 -0.37347412 240.17443848 C-0.36111134 232.05398507 -0.32838186 223.93375069 -0.28807616 215.81339312 C-0.24314813 206.55809019 -0.22131888 197.30277602 -0.20129442 188.04739094 C-0.15964208 169.03144508 -0.08637505 150.01579893 0 131 C-9.9 131 -19.8 131 -30 131 C-30 114.17 -30 97.34 -30 80 C-20.1 80 -10.2 80 0 80 C0 53.6 0 27.2 0 0 Z " fill="#000000" transform="translate(1092,304)"/>
<path d="M0 0 C0.9350386 -0.00095673 1.87007721 -0.00191345 2.83345032 -0.00289917 C4.7992052 -0.00357658 6.76496237 -0.00175306 8.73071289 0.00244141 C11.7391459 0.00781404 14.74743086 0.00247222 17.75585938 -0.00390625 C19.67057325 -0.00324575 21.58528702 -0.00196516 23.5 0 C24.39796799 -0.00202423 25.29593597 -0.00404846 26.22111511 -0.00613403 C27.47810966 -0.00140579 27.47810966 -0.00140579 28.76049805 0.00341797 C29.49439255 0.00421356 30.22828705 0.00500916 30.98442078 0.00582886 C33.05078125 0.1328125 33.05078125 0.1328125 37.05078125 1.1328125 C37.05078125 17.6328125 37.05078125 34.1328125 37.05078125 51.1328125 C-0.23921875 51.1328125 -37.52921875 51.1328125 -75.94921875 51.1328125 C-75.94921875 53.7728125 -75.94921875 56.4128125 -75.94921875 59.1328125 C-74.71171875 59.0503125 -73.47421875 58.9678125 -72.19921875 58.8828125 C-69.28163465 58.68830689 -68.23703456 58.92163846 -65.84549332 60.67634201 C-63.28969647 63.98717032 -63.40394201 66.81400576 -63.46820068 70.82696533 C-63.46478298 71.60625798 -63.46136528 72.38555063 -63.45784402 73.1884582 C-63.45125055 75.80211871 -63.47326467 78.41475429 -63.49511719 81.02832031 C-63.49624535 82.90080745 -63.49561241 84.77329636 -63.49334717 86.64578247 C-63.49219788 91.73231478 -63.51574202 96.81847102 -63.543643 101.90491581 C-63.56862084 107.21936711 -63.5709958 112.5338267 -63.57574463 117.84832764 C-63.58818504 127.91349563 -63.62102112 137.97849017 -63.66114259 148.04358172 C-63.70582711 159.50171496 -63.727839 170.95985641 -63.74792433 182.41805506 C-63.7897528 205.98975924 -63.86311854 229.56122559 -63.94921875 253.1328125 C-84.40921875 253.1328125 -104.86921875 253.1328125 -125.94921875 253.1328125 C-125.94921875 171.2928125 -125.94921875 89.4528125 -125.94921875 5.1328125 C-105.81921875 5.1328125 -85.68921875 5.1328125 -64.94921875 5.1328125 C-64.94921875 14.0428125 -64.94921875 22.9528125 -64.94921875 32.1328125 C-61.49353891 30.98091922 -61.29201595 30.47163307 -59.57421875 27.4453125 C-50.76069635 12.83410428 -36.65350094 6.0756265 -20.5625 1.9296875 C-13.64370203 0.40381206 -7.05185915 -0.01600478 0 0 Z " fill="#000000" transform="translate(2646.94921875,383.8671875)"/>
<path d="M0 0 C10.89 0 21.78 0 33 0 C37.24262072 17.80831134 37.24262072 17.80831134 39.04296875 25.3984375 C40.27166648 30.57841858 41.50134121 35.75815405 42.73681641 40.93652344 C43.73276701 45.1112204 44.72434939 49.28693273 45.71290588 53.46338654 C46.09091151 55.05695827 46.47049222 56.65015722 46.85166931 58.24297333 C47.38509957 60.47319164 47.91292499 62.7046671 48.43945312 64.93652344 C48.7414563 66.20671326 49.04345947 67.47690308 49.35461426 68.7855835 C50 72 50 72 50 76 C50.66 76 51.32 76 52 76 C52.09531006 74.8354126 52.19062012 73.6708252 52.28881836 72.47094727 C53.08391861 65.36210564 54.79346962 58.42928665 56.37890625 51.46484375 C56.71420511 49.97564582 57.0490725 48.48635069 57.38352966 46.9969635 C58.25876089 43.10478584 59.13979217 39.21394414 60.02209473 35.32336426 C61.08283612 30.64024014 62.1362659 25.95546647 63.19094086 21.27097321 C64.78840456 14.17937899 66.39506193 7.08992499 68 0 C78.89 0 89.78 0 101 0 C101 34.32 101 68.64 101 104 C94.07 104 87.14 104 80 104 C79.67 78.92 79.34 53.84 79 28 C73.39 53.08 67.78 78.16 62 104 C54.41 104 46.82 104 39 104 C33.0908169 79.05228988 27.53764167 54.03317466 22 29 C21.67 53.75 21.34 78.5 21 104 C14.07 104 7.14 104 0 104 C0 69.68 0 35.36 0 0 Z " fill="#4E6E56" transform="translate(1883,759)"/>
<path d="M0 0 C10.35375 -0.0825 20.7075 -0.165 31.375 -0.25 C36.25031494 -0.30462402 36.25031494 -0.30462402 41.22412109 -0.36035156 C43.82388653 -0.372043 46.42365932 -0.38223375 49.0234375 -0.390625 C49.68566315 -0.40107849 50.34788879 -0.41153198 51.03018188 -0.42230225 C61.83364644 -0.58407997 71.27005068 0.54655418 79.46484375 8.16015625 C85.30418417 15.15844973 87.41621168 23.29858727 87.26953125 32.24609375 C86.56360702 39.45879783 84.33688795 45.26888508 78.875 50.125 C76.94388952 51.64802676 75.19761408 52.90119296 73 54 C73.55429688 54.43570313 74.10859375 54.87140625 74.6796875 55.3203125 C81.13745743 60.62901305 82.75147816 64.35219418 83.7746582 72.65258789 C84.28200481 77.93767738 84.32693873 83.26797887 84.4296875 88.57421875 C84.460625 89.47269531 84.4915625 90.37117187 84.5234375 91.296875 C84.5531665 92.50875488 84.5531665 92.50875488 84.58349609 93.74511719 C85.08968509 96.48554014 86.34441678 97.79732103 88 100 C88 101.32 88 102.64 88 104 C79.75 104 71.5 104 63 104 C61.50310512 95.76707817 60.6521509 88.34404468 60.52148438 80.09960938 C60.36138436 75.05060155 59.93143041 71.30699912 57 67 C50.0326104 62.79206339 40.32131232 63.75609201 32.4375 63.4375 C28.993125 63.293125 25.54875 63.14875 22 63 C22 76.53 22 90.06 22 104 C14.74 104 7.48 104 0 104 C0 69.68 0 35.36 0 0 Z M22 18 C22 27.24 22 36.48 22 46 C27.878125 46.061875 27.878125 46.061875 33.875 46.125 C35.08913574 46.14320801 36.30327148 46.16141602 37.55419922 46.18017578 C49.25438607 46.24848305 49.25438607 46.24848305 60 42.1875 C62.8761116 39.04175293 63.9455467 36.94109983 64.06640625 32.6328125 C63.85530416 28.32121232 63.4236902 25.6355353 61 22 C53.3085484 16.8723656 43.81420405 17.75326111 34.9375 17.875 C28.5334375 17.936875 28.5334375 17.936875 22 18 Z " fill="#4E6E56" transform="translate(1180,759)"/>
<path d="M0 0 C13.7671875 -0.12375 13.7671875 -0.12375 27.8125 -0.25 C32.12598511 -0.30462402 32.12598511 -0.30462402 36.52661133 -0.36035156 C38.83674374 -0.37204724 41.14688446 -0.38223697 43.45703125 -0.390625 C45.21871643 -0.4213208 45.21871643 -0.4213208 47.01599121 -0.45263672 C59.45570719 -0.4578389 68.55845528 3.14037703 77.6484375 11.51953125 C88.87761229 23.23321358 89.63183851 40.39991217 89.31640625 55.6875 C88.61619758 71.97687324 82.71876531 85.61545972 71 97 C62.51674092 103.892648 53.43440656 104.43235926 42.87109375 104.29296875 C41.7792981 104.28994751 40.68750244 104.28692627 39.56262207 104.28381348 C35.52081725 104.26822865 31.47914819 104.22634547 27.4375 104.1875 C13.8559375 104.0946875 13.8559375 104.0946875 0 104 C0 69.68 0 35.36 0 0 Z M22 18 C22 40.44 22 62.88 22 86 C41.88283965 87.32588329 41.88283965 87.32588329 58.27734375 78.98828125 C64.94261815 71.29525478 66.38039848 61.54775715 66.3125 51.6875 C66.30831055 50.85516846 66.30412109 50.02283691 66.29980469 49.1652832 C66.13633425 40.22918926 64.86763295 32.07567502 59 25 C48.27900553 15.35110498 36.4299964 18 22 18 Z " fill="#4E6E57" transform="translate(1425,759)"/>
<path d="M0 0 C1.05251953 -0.01869141 2.10503906 -0.03738281 3.18945312 -0.05664062 C13.65106488 0.02830688 23.53587239 2.79336009 31.2109375 10.21484375 C38.38319638 17.85617442 40.27414784 24.02983055 41.4375 34.5 C34.1775 34.5 26.9175 34.5 19.4375 34.5 C18.7775 32.9325 18.1175 31.365 17.4375 29.75 C15.24028145 25.46481687 13.52827874 22.86600822 9.01171875 21.05078125 C0.91820922 19.31908953 -8.38366761 18.99236106 -15.5625 23.5 C-17.67462504 26.66818756 -17.89406464 28.63219252 -18.12109375 32.3671875 C-17.22127233 35.80286928 -15.25123454 37.23365556 -12.5625 39.5 C-9.82006397 40.67397664 -7.0159668 41.33530754 -4.11328125 42 C-2.8942939 42.30454102 -2.8942939 42.30454102 -1.65068054 42.61523438 C0.93744019 43.26020638 3.5303073 43.8820436 6.125 44.5 C35.04589658 51.45906525 35.04589658 51.45906525 41.4375 61.5 C45.85306706 68.9544174 45.50786533 78.27607866 43.81640625 86.53125 C41.00420824 95.43029437 35.67257766 102.1055835 27.375 106.4375 C19.07792711 110.28921936 11.81698468 110.86463181 2.75 110.875 C1.64205078 110.89949219 0.53410156 110.92398438 -0.60742188 110.94921875 C-12.3570583 110.99042145 -23.83912918 107.92515679 -32.5 99.6484375 C-39.40074481 92.20138373 -40.9481578 85.45234358 -41.5625 75.5 C-34.3025 75.5 -27.0425 75.5 -19.5625 75.5 C-18.2425 78.8 -16.9225 82.1 -15.5625 85.5 C-9.9265246 90.21581615 -4.99602288 90.72614968 2.125 90.8125 C3.29192383 90.85600586 3.29192383 90.85600586 4.48242188 90.90039062 C10.20003497 90.96238309 14.72961203 89.86663364 19.4375 86.5 C21.93781654 82.74952518 21.97353554 80.94143734 21.4375 76.5 C16.70601055 70.19134741 9.68621053 68.39969053 2.32421875 66.6328125 C0.97973738 66.30110666 -0.36466111 65.96906475 -1.70898438 65.63671875 C-3.78758437 65.12995768 -5.86693501 64.62692435 -7.94799805 64.13037109 C-30.89829599 58.62491345 -30.89829599 58.62491345 -37.5625 48.5 C-41.50659697 40.7996202 -41.58290678 31.51804624 -39.3125 23.3125 C-36.28596485 14.30231049 -30.34140703 7.9027117 -22.1875 3.1015625 C-15.01917573 0.09342642 -7.67871585 0.09446575 0 0 Z " fill="#4D6D57" transform="translate(2557.5625,755.5)"/>
<path d="M0 0 C1.05251953 -0.01869141 2.10503906 -0.03738281 3.18945312 -0.05664062 C13.65106488 0.02830688 23.53587239 2.79336009 31.2109375 10.21484375 C38.38319638 17.85617442 40.27414784 24.02983055 41.4375 34.5 C34.1775 34.5 26.9175 34.5 19.4375 34.5 C18.7775 32.9325 18.1175 31.365 17.4375 29.75 C15.24028145 25.46481687 13.52827874 22.86600822 9.01171875 21.05078125 C0.91820922 19.31908953 -8.38366761 18.99236106 -15.5625 23.5 C-17.67462504 26.66818756 -17.89406464 28.63219252 -18.12109375 32.3671875 C-17.22127233 35.80286928 -15.25123454 37.23365556 -12.5625 39.5 C-9.82006397 40.67397664 -7.0159668 41.33530754 -4.11328125 42 C-2.8942939 42.30454102 -2.8942939 42.30454102 -1.65068054 42.61523438 C0.93744019 43.26020638 3.5303073 43.8820436 6.125 44.5 C35.04589658 51.45906525 35.04589658 51.45906525 41.4375 61.5 C45.85306706 68.9544174 45.50786533 78.27607866 43.81640625 86.53125 C41.00420824 95.43029437 35.67257766 102.1055835 27.375 106.4375 C19.07792711 110.28921936 11.81698468 110.86463181 2.75 110.875 C1.64205078 110.89949219 0.53410156 110.92398438 -0.60742188 110.94921875 C-12.3570583 110.99042145 -23.83912918 107.92515679 -32.5 99.6484375 C-39.40074481 92.20138373 -40.9481578 85.45234358 -41.5625 75.5 C-34.3025 75.5 -27.0425 75.5 -19.5625 75.5 C-18.2425 78.8 -16.9225 82.1 -15.5625 85.5 C-9.9265246 90.21581615 -4.99602288 90.72614968 2.125 90.8125 C3.29192383 90.85600586 3.29192383 90.85600586 4.48242188 90.90039062 C10.20003497 90.96238309 14.72961203 89.86663364 19.4375 86.5 C21.93781654 82.74952518 21.97353554 80.94143734 21.4375 76.5 C16.70601055 70.19134741 9.68621053 68.39969053 2.32421875 66.6328125 C0.97973738 66.30110666 -0.36466111 65.96906475 -1.70898438 65.63671875 C-3.78758437 65.12995768 -5.86693501 64.62692435 -7.94799805 64.13037109 C-30.89829599 58.62491345 -30.89829599 58.62491345 -37.5625 48.5 C-41.50659697 40.7996202 -41.58290678 31.51804624 -39.3125 23.3125 C-36.28596485 14.30231049 -30.34140703 7.9027117 -22.1875 3.1015625 C-15.01917573 0.09342642 -7.67871585 0.09446575 0 0 Z " fill="#4E6D57" transform="translate(2443.5625,755.5)"/>
<path d="M0 0 C25.74 0 51.48 0 78 0 C78 5.94 78 11.88 78 18 C59.52 18 41.04 18 22 18 C22 25.26 22 32.52 22 40 C38.83 40 55.66 40 73 40 C73 45.94 73 51.88 73 58 C56.17 58 39.34 58 22 58 C22 67.24 22 76.48 22 86 C41.14 86 60.28 86 80 86 C80 91.94 80 97.88 80 104 C53.6 104 27.2 104 0 104 C0 69.68 0 35.36 0 0 Z " fill="#4D6E56" transform="translate(2293,759)"/>
<path d="M0 0 C25.74 0 51.48 0 78 0 C78 5.94 78 11.88 78 18 C59.52 18 41.04 18 22 18 C22 25.26 22 32.52 22 40 C38.83 40 55.66 40 73 40 C73 45.94 73 51.88 73 58 C56.17 58 39.34 58 22 58 C22 67.24 22 76.48 22 86 C41.14 86 60.28 86 80 86 C80 91.94 80 97.88 80 104 C53.6 104 27.2 104 0 104 C0 69.68 0 35.36 0 0 Z " fill="#4D6E56" transform="translate(1548,759)"/>
<path d="M0 0 C1.084021 0.00523682 2.16804199 0.01047363 3.28491211 0.01586914 C4.45473633 0.0190918 5.62456055 0.02231445 6.82983398 0.02563477 C8.0615332 0.03401367 9.29323242 0.04239258 10.56225586 0.05102539 C12.41560547 0.05779297 12.41560547 0.05779297 14.30639648 0.06469727 C17.37089935 0.07652932 20.43529621 0.09385104 23.49975586 0.11352539 C27.03300106 8.35861564 30.21923453 16.67606211 33.19506836 25.13696289 C33.85322307 26.99407863 34.51138012 28.85119355 35.16964817 30.70826912 C35.85646296 32.64769908 36.54172281 34.5876715 37.22647095 36.52783203 C39.56734039 43.16034457 41.91798395 49.78939345 44.26928711 56.41821289 C44.61341298 57.38889584 44.61341298 57.38889584 44.96449089 58.37918854 C49.09155829 70.01695409 53.30239883 81.62191154 57.65454102 93.17749023 C58.04303223 94.21856934 58.43152344 95.25964844 58.83178711 96.33227539 C59.15896729 97.19788086 59.48614746 98.06348633 59.82324219 98.95532227 C60.49975586 101.11352539 60.49975586 101.11352539 60.49975586 104.11352539 C52.24975586 104.11352539 43.99975586 104.11352539 35.49975586 104.11352539 C34.50975586 101.04040039 33.51975586 97.96727539 32.49975586 94.80102539 C32.18651367 93.83640381 31.87327148 92.87178223 31.55053711 91.87792969 C31.3069043 91.11391846 31.06327148 90.34990723 30.81225586 89.56274414 C30.56088867 88.7824585 30.30952148 88.00217285 30.05053711 87.19824219 C29.49975586 85.11352539 29.49975586 85.11352539 29.49975586 82.11352539 C16.95975586 82.11352539 4.41975586 82.11352539 -8.50024414 82.11352539 C-9.49024414 85.74352539 -10.48024414 89.37352539 -11.50024414 93.11352539 C-12.82024414 96.74352539 -14.14024414 100.37352539 -15.50024414 104.11352539 C-23.42024414 104.11352539 -31.34024414 104.11352539 -39.50024414 104.11352539 C-37.25023334 93.98847679 -37.25023334 93.98847679 -35.87475586 90.20019531 C-35.56561752 89.3403302 -35.25647919 88.48046509 -34.93797302 87.59454346 C-34.43899254 86.23302155 -34.43899254 86.23302155 -33.92993164 84.84399414 C-33.57620987 83.8650116 -33.2224881 82.88602905 -32.85804749 81.87738037 C-31.70246812 78.68329192 -30.53902695 75.49213302 -29.37524414 72.30102539 C-28.57084652 70.08381936 -27.76689681 67.86645078 -26.96337891 65.64892578 C-25.30798562 61.08327517 -23.64925683 56.51885601 -21.98803711 51.95532227 C-19.96196928 46.38756566 -17.94506846 40.81655541 -15.93273926 35.24382019 C-14.45447776 31.15027128 -12.97367658 27.05764436 -11.49224854 22.96524048 C-10.78983895 21.02407019 -10.08813682 19.08264377 -9.387146 17.14096069 C-8.4158898 14.45241892 -7.44101815 11.76521713 -6.46508789 9.07836914 C-6.17739029 8.27977478 -5.88969269 7.48118042 -5.59327698 6.65838623 C-3.22047906 0.14622818 -3.22047906 0.14622818 0 0 Z M9.49975586 27.11352539 C5.53975586 39.32352539 1.57975586 51.53352539 -2.50024414 64.11352539 C5.74975586 64.11352539 13.99975586 64.11352539 22.49975586 64.11352539 C20.39094264 55.6782725 18.1784145 47.62915875 15.43725586 39.42602539 C15.08598633 38.34385742 14.7347168 37.26168945 14.37280273 36.14672852 C13.86136719 34.60855469 13.86136719 34.60855469 13.33959961 33.03930664 C13.03401123 32.11545166 12.72842285 31.19159668 12.41357422 30.23974609 C11.69759182 27.94362695 11.69759182 27.94362695 9.49975586 27.11352539 Z " fill="#4E6E57" transform="translate(1334.500244140625,758.886474609375)"/>
<path d="M0 0 C28.38 0 56.76 0 86 0 C86 5.94 86 11.88 86 18 C75.44 18 64.88 18 54 18 C54 46.38 54 74.76 54 104 C46.41 104 38.82 104 31 104 C31 75.62 31 47.24 31 18 C20.77 18 10.54 18 0 18 C0 12.06 0 6.12 0 0 Z " fill="#4D6E56" transform="translate(2072,759)"/>
<path d="M0 0 C28.38 0 56.76 0 86 0 C86 5.94 86 11.88 86 18 C75.44 18 64.88 18 54 18 C54 46.38 54 74.76 54 104 C46.41 104 38.82 104 31 104 C31 75.62 31 47.24 31 18 C20.77 18 10.54 18 0 18 C0 12.06 0 6.12 0 0 Z " fill="#4E6E56" transform="translate(1065,759)"/>
<path d="M0 0 C7.26 0 14.52 0 22 0 C22 28.38 22 56.76 22 86 C39.16 86 56.32 86 74 86 C74 91.94 74 97.88 74 104 C49.58 104 25.16 104 0 104 C0 69.68 0 35.36 0 0 Z " fill="#4D6E57" transform="translate(2187,759)"/>
<path d="M0 0 C7.26 0 14.52 0 22 0 C22 28.38 22 56.76 22 86 C39.16 86 56.32 86 74 86 C74 91.94 74 97.88 74 104 C49.58 104 25.16 104 0 104 C0 69.68 0 35.36 0 0 Z " fill="#4E6D56" transform="translate(1720,759)"/>
<path d="M0 0 C7.26 0 14.52 0 22 0 C22 34.32 22 68.64 22 104 C14.74 104 7.48 104 0 104 C0 69.68 0 35.36 0 0 Z " fill="#4D6E56" transform="translate(2021,759)"/>
<path d="M0 0 C7.26 0 14.52 0 22 0 C22 34.32 22 68.64 22 104 C14.74 104 7.48 104 0 104 C0 69.68 0 35.36 0 0 Z " fill="#4E6D58" transform="translate(1824,759)"/>
<path d="M0 0 C0 2.31 0 4.62 0 7 C-0.99 5.515 -0.99 5.515 -2 4 C-2.94359375 5.06927734 -2.94359375 5.06927734 -3.90625 6.16015625 C-4.7621875 7.11792969 -5.618125 8.07570313 -6.5 9.0625 C-7.3353125 10.00222656 -8.170625 10.94195312 -9.03125 11.91015625 C-11.04917451 14.08446792 -13.15691659 16.02430743 -15.4230957 17.93676758 C-21.2917804 23.03954541 -26.7166629 28.592827 -32.19921875 34.1015625 C-33.36385925 35.26807302 -34.52872439 36.43435929 -35.69380188 37.60043335 C-38.74031572 40.65073767 -41.78381616 43.70403099 -44.82666016 46.75799561 C-47.91973056 49.86131267 -51.01564363 52.96179097 -54.11132812 56.0625 C-59.55663311 61.51733535 -64.99946468 66.97462778 -70.44047546 72.43374634 C-72.20072872 74.1986274 -73.96488018 75.95962634 -75.73225403 77.71737671 C-77.58771176 79.58500699 -79.27879994 81.46148167 -80.9375 83.5 C-83.70058057 86.77318775 -86.67143912 89.30882312 -90 92 C-92.64508971 94.51606095 -95.02346899 97.02917766 -97.3125 99.875 C-99.2070571 102.19218907 -101.21089831 104.10446944 -103.5 106.03125 C-108.8218604 110.63613501 -113.7363822 115.6283949 -118.6875 120.625 C-119.61111328 121.553125 -120.53472656 122.48125 -121.48632812 123.4375 C-123.20258788 125.16240902 -124.91780997 126.88835167 -126.6315918 128.61572266 C-129.08218311 131.08273376 -131.54002633 133.5423473 -134 136 C-134.680625 136.680625 -135.36125 137.36125 -136.0625 138.0625 C-147 149 -147 149 -148.61328125 150.578125 C-151.65727143 153.57486921 -154.55501524 156.61143569 -157.3125 159.875 C-160.80290589 163.93269533 -164.69013988 167.42438828 -168.703125 170.95703125 C-170.49449804 172.55037836 -172.20480667 174.15841241 -173.875 175.875 C-175.81055708 177.81055708 -177.76498098 179.42720883 -180 181 C-178.67970913 178.07908021 -177.25548162 176.00567555 -174.99242306 173.74353409 C-174.37249664 173.11900888 -173.75257023 172.49448367 -173.11385816 171.85103345 C-172.09057309 170.83546373 -172.09057309 170.83546373 -171.0466156 169.79937744 C-170.32282355 169.07317097 -169.5990315 168.34696451 -168.85330635 167.59875178 C-166.4205348 165.16033285 -163.98066408 162.72914362 -161.54077148 160.29785156 C-159.79785617 158.55386365 -158.05537381 156.80944294 -156.31329346 155.06462097 C-152.06849984 150.81547757 -147.81908306 146.57100866 -143.5674923 142.32867011 C-138.62009572 137.39165393 -133.67792679 132.44941853 -128.73596144 127.50696668 C-119.9219159 118.69242053 -111.10304802 109.88271486 -102.28149414 101.07568359 C-93.71340825 92.52169581 -85.14884329 83.96420306 -76.58813477 75.40283203 C-75.79672371 74.61136105 -75.79672371 74.61136105 -74.98932456 73.80390075 C-74.46264542 73.27718126 -73.93596629 72.75046176 -73.39332718 72.20778108 C-63.65587376 62.4696387 -53.9151379 52.73478556 -44.17286138 43.00146849 C-40.72257794 39.55420682 -37.27327679 36.10596409 -33.82427788 32.6574173 C-29.18852613 28.02241696 -24.54999617 23.39020957 -19.90957642 18.75988197 C-18.20142562 17.05466496 -16.49413333 15.3485875 -14.78773689 13.64161491 C-12.46959391 11.32298524 -10.1484257 9.00742902 -7.82640076 6.69268799 C-7.14197999 6.00671862 -6.45755922 5.32074925 -5.75239843 4.61399293 C-1.11417865 0 -1.11417865 0 0 0 Z " fill="#5A7A6D" transform="translate(668,490)"/>
<path d="M0 0 C0.99 0.495 0.99 0.495 2 1 C-36 39 -36 39 -37.61328125 40.578125 C-40.65727143 43.57486921 -43.55501524 46.61143569 -46.3125 49.875 C-49.80290589 53.93269533 -53.69013988 57.42438828 -57.703125 60.95703125 C-59.49449804 62.55037836 -61.20480667 64.15841241 -62.875 65.875 C-64.81055708 67.81055708 -66.76498098 69.42720883 -69 71 C-67.72113231 68.19612942 -66.39618952 66.14751465 -64.21591187 63.97540283 C-63.36616539 63.12153236 -63.36616539 63.12153236 -62.49925232 62.25041199 C-61.57028893 61.33223442 -61.57028893 61.33223442 -60.62255859 60.39550781 C-59.96877731 59.74143448 -59.31499603 59.08736115 -58.6414032 58.41346741 C-56.48178862 56.25524486 -54.3151788 54.10419064 -52.1484375 51.953125 C-50.64870384 50.45712191 -49.14941147 48.96067631 -47.65054321 47.46380615 C-43.70610188 43.52699775 -39.75569106 39.59623266 -35.80401611 35.66668701 C-31.77197847 31.65511502 -27.74560286 27.63786906 -23.71875 23.62109375 C-15.81803787 15.74182555 -7.9110091 7.86892875 0 0 Z " fill="#577469" transform="translate(557,600)"/>
<path d="M0 0 C0 4.92846443 -3.68033843 7.59860434 -7 11 C-8.97092663 12.80539959 -10.98223129 14.54741207 -13.01953125 16.27734375 C-16.17656875 19.02340595 -19.07289441 22.01369453 -22 25 C-23.66529662 26.66803559 -25.33209279 28.3345748 -27 30 C-28.32451172 31.32451172 -28.32451172 31.32451172 -29.67578125 32.67578125 C-32.1171875 35.1171875 -34.55859375 37.55859375 -37 40 C-37.66 39.67 -38.32 39.34 -39 39 C-26.13 26.13 -13.26 13.26 0 0 Z " fill="#4B635A" transform="translate(487,670)"/>
<path d="M0 0 C0.99 0.33 1.98 0.66 3 1 C-1.31391559 5.41476037 -5.67069469 9.66435374 -10.40625 13.625 C-11.89581692 14.91011656 -13.29639716 16.29639716 -14.6875 17.6875 C-16.69413609 19.69413609 -18.68472871 21.37073502 -21 23 C-19.48623919 19.43235715 -17.39486871 17.16293713 -14.6484375 14.453125 C-13.79765625 13.60878906 -12.946875 12.76445313 -12.0703125 11.89453125 C-11.18085938 11.02183594 -10.29140625 10.14914062 -9.375 9.25 C-8.4778125 8.36183594 -7.580625 7.47367188 -6.65625 6.55859375 C-4.44192996 4.36783031 -2.22307565 2.18187237 0 0 Z " fill="#516C61" transform="translate(509,648)"/>
</svg>
